<svg id="Layer_1" data-name="Layer 1" xmlns="http://www.w3.org/2000/svg" viewBox="0 0 289.73 107.97"><defs><style>.cls-1{fill:#004689;}.cls-2{fill:#fff;}</style></defs><title>logo-vnpost</title><path class="cls-1" d="M15.2,102.57c0,1.86,1.31,2.43,3,2.43.95,0,2.4-.52,2.4-1.84,0-1-1-1.43-1.87-1.64l-2-.49c-1.07-.27-2-.78-2-2.18,0-.89.57-2.56,3.13-2.56,1.79,0,3.36,1,3.35,2.82h-.87A2.23,2.23,0,0,0,17.77,97c-1.18,0-2.27.46-2.27,1.8,0,.85.63,1.21,1.37,1.39l2.21.54c1.28.35,2.34.9,2.34,2.39,0,.62-.25,2.59-3.46,2.59-2.15,0-3.72-1-3.62-3.17Z"/><path class="cls-1" d="M22.59,101c.08-1.53,1.16-2.19,2.65-2.19,1.16,0,2.42.35,2.42,2.1v3.48a.43.43,0,0,0,.47.49.92.92,0,0,0,.25,0v.67a2.14,2.14,0,0,1-.52,0c-.81,0-.94-.46-.94-1.14h0a2.48,2.48,0,0,1-2.38,1.33c-1.21,0-2.2-.6-2.2-1.92,0-1.84,1.79-1.9,3.52-2.11.66-.07,1-.16,1-.88,0-1.08-.78-1.35-1.72-1.35s-1.72.46-1.75,1.52Zm4.27,1h0c-.1.19-.46.25-.67.29-1.36.24-3.05.23-3.05,1.51a1.37,1.37,0,0,0,1.46,1.3A2.11,2.11,0,0,0,26.86,103Zm-1.77-3.66a1,1,0,0,1,.46-.89.62.62,0,0,0,.23-.44.47.47,0,0,0-.51-.46.6.6,0,0,0-.41.14.7.7,0,0,0-.16.48v0h-.32v0a1,1,0,0,1,.24-.64.88.88,0,0,1,.66-.24.85.85,0,0,1,.57.19.65.65,0,0,1,.24.52.84.84,0,0,1-.34.64l-.11.11c-.22.2-.22.21-.23.59v0h-.32Z"/><path class="cls-1" d="M29.21,99H30v1.13h0a2.21,2.21,0,0,1,2.09-1.32c1.85,0,2.4,1,2.4,2.52v4.22h-.8v-4.09c0-1.13-.36-2-1.66-2A2.08,2.08,0,0,0,30,101.73v3.82h-.8Z"/><path class="cls-1" d="M39.57,99h.74v1.24h0a2.46,2.46,0,0,1,2.34-1.43c2,0,2.94,1.61,2.94,3.46s-1,3.47-2.94,3.47a2.33,2.33,0,0,1-2.27-1.44h0V108h-.8Zm3.1.48c-1.77,0-2.3,1.31-2.3,2.79s.6,2.8,2.3,2.8c1.52,0,2.14-1.44,2.14-2.8S44.19,99.48,42.67,99.48Z"/><path class="cls-1" d="M46.84,96.48h.8v3.65h0a2.21,2.21,0,0,1,2.09-1.32c1.84,0,2.4,1,2.4,2.52v4.22h-.8v-4.09c0-1.13-.36-2-1.66-2a2.08,2.08,0,0,0-2.06,2.25v3.82h-.8Z"/><path class="cls-1" d="M53.6,101c.07-1.53,1.15-2.19,2.65-2.19,1.15,0,2.41.35,2.41,2.1v3.48a.43.43,0,0,0,.47.49.85.85,0,0,0,.25,0v.67a2,2,0,0,1-.52,0c-.81,0-.94-.46-.94-1.14h0a2.5,2.5,0,0,1-2.39,1.33c-1.2,0-2.19-.6-2.19-1.92,0-1.84,1.79-1.9,3.51-2.11.66-.07,1-.16,1-.88,0-1.08-.77-1.35-1.71-1.35s-1.73.46-1.75,1.52Zm4.26,1h0c-.11.19-.46.25-.68.29-1.36.24-3,.23-3,1.51a1.37,1.37,0,0,0,1.46,1.3A2.11,2.11,0,0,0,57.86,103ZM58,98.34h-.7l-.94-1.11-.94,1.11h-.63L56,96.81h.75Zm.32-.69H58v0a.92.92,0,0,1,.45-.88.6.6,0,0,0,.23-.45.47.47,0,0,0-.49-.46.51.51,0,0,0-.41.16.61.61,0,0,0-.17.47v0h-.33v0a.88.88,0,0,1,.25-.66.87.87,0,0,1,.66-.26.9.9,0,0,1,.57.2.65.65,0,0,1,.24.53.85.85,0,0,1-.34.66,1.09,1.09,0,0,0-.11.1c-.21.19-.22.2-.22.58Z"/><path class="cls-1" d="M60.26,99H61v1.1h0a2.3,2.3,0,0,1,2.15-1.29,1.83,1.83,0,0,1,1.88,1.28,2.21,2.21,0,0,1,2.08-1.28c1.43,0,2.17.75,2.17,2.3v4.44h-.8v-4.41c0-1.08-.41-1.66-1.55-1.66-1.38,0-1.78,1.14-1.78,2.36v3.71h-.8v-4.44c0-.89-.35-1.63-1.37-1.63-1.38,0-1.94,1-1.95,2.41v3.66h-.8Z"/><path class="cls-1" d="M79,101.05a1.78,1.78,0,0,0-1.85-1.57c-1.54,0-2.3,1.4-2.3,2.79s.76,2.8,2.3,2.8A2,2,0,0,0,79,103.2h.8a2.66,2.66,0,0,1-2.7,2.54c-2,0-3.1-1.59-3.1-3.47s1.09-3.46,3.1-3.46a2.45,2.45,0,0,1,2.65,2.24Z"/><path class="cls-1" d="M86.25,105.55h-.73v-1.18h0a2.44,2.44,0,0,1-2.26,1.37c-1.65,0-2.3-1-2.3-2.49V99h.8v4.26c0,1.18.49,1.81,1.76,1.81s2-1.3,2-2.63V99h.8Zm-2.79-7.06a.94.94,0,0,1,.44-.88.63.63,0,0,0,.25-.45.48.48,0,0,0-.51-.46.53.53,0,0,0-.41.15.69.69,0,0,0-.18.48v0h-.3v0a.84.84,0,0,1,.9-.9.92.92,0,0,1,.56.19.66.66,0,0,1,.24.52.85.85,0,0,1-.34.66.5.5,0,0,0-.1.11c-.22.2-.23.2-.25.58v0h-.3Z"/><path class="cls-1" d="M87.69,101c.07-1.53,1.15-2.19,2.65-2.19,1.15,0,2.41.35,2.41,2.1v3.48a.43.43,0,0,0,.47.49.85.85,0,0,0,.25,0v.67a2,2,0,0,1-.52,0c-.81,0-.94-.46-.94-1.14h0a2.5,2.5,0,0,1-2.39,1.33c-1.2,0-2.19-.6-2.19-1.92,0-1.84,1.79-1.9,3.51-2.11.66-.07,1-.16,1-.88,0-1.08-.77-1.35-1.71-1.35s-1.73.46-1.75,1.52ZM92,102h0c-.11.19-.46.25-.68.29-1.36.24-3,.23-3,1.51a1.37,1.37,0,0,0,1.46,1.3A2.11,2.11,0,0,0,92,103Z"/><path class="cls-1" d="M98,96.48h4.27c1.72,0,2.89.56,2.89,2.25a2,2,0,0,1-1.23,1.89,2.22,2.22,0,0,1,1.66,2.3c0,1.84-1.56,2.63-3.2,2.63H98Zm2,3.67h2c.7,0,1.22-.31,1.22-1.08s-.66-1-1.37-1H100Zm0,3.85h2.14c.78,0,1.47-.25,1.47-1.19s-.58-1.3-1.44-1.3H100Z"/><path class="cls-1" d="M112.89,100.18v5.37h-1.71v-.92h0a2.34,2.34,0,0,1-2,1.1c-1.91,0-2.39-1.08-2.39-2.71V99h1.8v3.7c0,1.08.32,1.61,1.15,1.61,1,0,1.4-.54,1.4-1.87V99h1.8v.59a.8.8,0,0,0,.31-.72h-.55V97.59h1.17v1.26A1.32,1.32,0,0,1,112.89,100.18Z"/><path class="cls-1" d="M120.42,105.55H118.7v-.92h0a2.35,2.35,0,0,1-2,1.1c-1.92,0-2.4-1.08-2.4-2.71V99h1.8v3.7c0,1.08.32,1.61,1.16,1.61s1.4-.54,1.4-1.87V99h1.8Z"/><path class="cls-1" d="M128.57,97h1.34v-.55h1.8V97h.68v1.55h-.68v7H130v-.84h0a2.17,2.17,0,0,1-2,1c-2,0-2.94-1.7-2.94-3.52s1-3.4,2.9-3.4a2.27,2.27,0,0,1,1.95,1h0V98.58h-1.34Zm-.14,3.14c-1.18,0-1.59,1-1.59,2.09s.47,2.11,1.59,2.11,1.54-1,1.54-2.12S129.59,100.17,128.43,100.17Z"/><path class="cls-1" d="M134.92,98h-1.8V96.48h1.8Zm-1.8,1h1.8v6.56h-1.8Z"/><path class="cls-1" d="M137.83,102.71c0,1.14.61,1.66,1.61,1.66a1.48,1.48,0,0,0,1.42-.85h1.59a3,3,0,0,1-3.07,2.21,3.21,3.21,0,0,1-3.35-3.46,3.29,3.29,0,0,1,3.35-3.46c2.23,0,3.31,1.88,3.19,3.9Zm.79-5.9H140l1.2,1.53h-1.27l-.66-.87-.7.87h-1.16Zm2.14,4.75c-.16-.91-.56-1.39-1.43-1.39a1.42,1.42,0,0,0-1.5,1.39Zm-2.09,4.64h1.27v1.25h-1.27Z"/><path class="cls-1" d="M143.63,99h1.71v.91h0a2.34,2.34,0,0,1,2-1.09c1.91,0,2.4,1.08,2.4,2.7v4H148v-3.71c0-1.08-.31-1.61-1.15-1.61s-1.4.55-1.4,1.88v3.44h-1.8Z"/><path class="cls-1" d="M159.09,105.55h-2.25l-2.94-9.07h2l2,6.38h0l2-6.38h2.06Z"/><path class="cls-1" d="M164.3,98h-1.8V96.48h1.8Zm-1.8,1h1.8v6.56h-1.8Z"/><path class="cls-1" d="M167.21,102.71c0,1.14.61,1.66,1.61,1.66a1.48,1.48,0,0,0,1.42-.85h1.59a3,3,0,0,1-3.07,2.21,3.21,3.21,0,0,1-3.35-3.46,3.29,3.29,0,0,1,3.35-3.46c2.23,0,3.31,1.88,3.19,3.9Zm.79-5.9h1.39l1.2,1.53h-1.27l-.66-.87-.7.87H166.8Zm2.14,4.75c-.16-.91-.56-1.39-1.43-1.39a1.42,1.42,0,0,0-1.5,1.39Zm-2.09,4.64h1.27v1.25h-1.27Z"/><path class="cls-1" d="M175.3,99h1.32v1.2H175.3v3.25c0,.61.15.76.76.76a2.65,2.65,0,0,0,.56,0v1.41a7.13,7.13,0,0,1-1.06.06c-1.1,0-2.07-.25-2.07-1.56v-3.87H172.4V99h1.09V97h1.81Z"/><path class="cls-1" d="M181.2,96.48h2l3.78,6.09h0V96.48h1.86v9.07h-2l-3.77-6.07h0v6.07H181.2Z"/><path class="cls-1" d="M190.33,101c.11-1.68,1.62-2.19,3.09-2.19,1.31,0,2.88.29,2.88,1.86v3.42a3.29,3.29,0,0,0,.23,1.46H194.7a3.3,3.3,0,0,1-.13-.64,3,3,0,0,1-2.2.82c-1.25,0-2.24-.63-2.24-2,0-1.49,1.12-1.84,2.24-2s2.13-.13,2.13-.87-.53-.89-1.17-.89-1.13.28-1.19,1Zm4.17,1.34a3.69,3.69,0,0,1-1.5.38c-.56.11-1.07.3-1.07,1s.52.84,1.11.84A1.34,1.34,0,0,0,194.5,103Z"/><path class="cls-1" d="M197.75,99h1.7v.88h0a2.38,2.38,0,0,1,2-1.06,2,2,0,0,1,1.92,1.09,2.38,2.38,0,0,1,2-1.09,2.13,2.13,0,0,1,2.4,2.35v4.39H206v-3.72c0-.88-.07-1.6-1.1-1.6s-1.21.84-1.21,1.66v3.66h-1.8v-3.68c0-.76,0-1.64-1.09-1.64-.36,0-1.22.23-1.22,1.51v3.81h-1.8Z"/><polygon class="cls-1" points="215.17 101.17 216.4 101.17 218.27 104.52 220.06 101.17 221.14 101.17 218.58 105.8 217.84 105.8 215.17 101.17"/><rect class="cls-1" x="222.51" y="101.17" width="1.07" height="4.63"/><polygon class="cls-1" points="225.58 101.17 230.32 101.17 230.32 101.96 226.66 101.96 226.66 102.99 228.79 102.99 228.79 103.78 226.66 103.78 226.66 104.93 230.37 104.93 230.37 105.8 225.58 105.8 225.58 101.17"/><polygon class="cls-1" points="234.42 105.8 233.34 105.8 233.34 102 231.22 102 231.22 101.17 236.56 101.17 236.56 102 234.42 102 234.42 105.8"/><path class="cls-1" d="M237.77,101.17h.74l3.26,2.73a4.18,4.18,0,0,1,.53.5c0-.39-.05-.65-.05-.8v-2.43h1v4.63h-.74l-3.39-2.86a2.79,2.79,0,0,1-.39-.38c0,.36,0,.61,0,.74v2.5h-1Z"/><path class="cls-1" d="M248.7,104l-1-1.88-1,1.88Zm-1.48-2.78h1l2.66,4.63h-1.21l-.56-1h-2.93l-.54,1H244.6Z"/><path class="cls-1" d="M252.31,101.17h.86l2.19,2.8,2.13-2.8h.87v4.63h-1v-2.86c0-.09,0-.25,0-.49a2.27,2.27,0,0,1-.27.48l-1.74,2.32h-.21l-1.74-2.33a1.83,1.83,0,0,1-.28-.47,4.27,4.27,0,0,1,0,.49v2.86h-.86Z"/><path class="cls-1" d="M265,102v1.23h2.42c.34,0,.49-.06.49-.37v-.49c0-.31-.15-.37-.49-.37Zm-1.05-.8h4c.71,0,1,.25,1,.9v1c0,.65-.33.9-1,.9H265v1.8h-1.05Z"/><path class="cls-1" d="M275,102h-3.56v2.93H275Zm-3.48-.83H275c.87,0,1.15.23,1.15,1.1v2.44c0,.87-.28,1.09-1.15,1.09h-3.41c-.87,0-1.15-.22-1.15-1.09v-2.44c0-.87.28-1.1,1.15-1.1"/><path class="cls-1" d="M279.25,102v1h2.89c.87,0,1.16.22,1.16,1.09v.64c0,.87-.29,1.09-1.16,1.09h-2.86c-.87,0-1.16-.22-1.16-1.09v-.16h.95v.38h3.28v-1.05h-2.89c-.87,0-1.14-.23-1.14-1.1v-.51c0-.87.27-1.1,1.14-1.1h2.63c.83,0,1.15.22,1.15,1v.11h-.95V102Z"/><polygon class="cls-1" points="287.6 105.8 286.52 105.8 286.52 102 284.4 102 284.4 101.17 289.73 101.17 289.73 102 287.6 102 287.6 105.8"/><path class="cls-2" d="M246.57,85.36h21.69l2.71-3h-21.7l-2.7,3"/><path class="cls-2" d="M250.62,80.86h21.69l2.7-3H253.33l-2.71,3"/><path class="cls-2" d="M254.68,76.35h21.68l2.71-3H257.38l-2.7,3"/><path class="cls-2" d="M282.13,68.53H262.69a2.22,2.22,0,0,0-1.67.77l-2.29,2.55h21.69l2.14-2.38a.57.57,0,0,0,.13-.36.59.59,0,0,0-.56-.58"/><path class="cls-2" d="M240.69,91.21a.43.43,0,0,1-.43.43.46.46,0,0,1-.25-.08l-10.43-6.93a.43.43,0,0,1,.27-.77h10.41a.43.43,0,0,1,.43.43Zm4.4-4.35V84.19a1.19,1.19,0,0,0-.49-1l-10.36-6.88a1.24,1.24,0,0,0-.68-.21,1.22,1.22,0,0,0-.68.21L222.5,83.23a1.22,1.22,0,0,0-.49,1,1.24,1.24,0,0,0,.5,1L238.59,96a2.86,2.86,0,0,0,1.58.51h16.55a3.55,3.55,0,0,0,2.53-1.1l7.67-8.52Z"/><rect class="cls-2" y="76.09" width="215.27" height="5.25"/><path class="cls-2" d="M25.24.51a23.47,23.47,0,0,1,9.27,1.61,16.81,16.81,0,0,1,6.06,4.2,15.64,15.64,0,0,1,3.3,5.95,23.55,23.55,0,0,1,1,6.81,19.59,19.59,0,0,1-1.66,8.33,15.19,15.19,0,0,1-4.61,5.82,20.31,20.31,0,0,1-7.16,3.38,35.56,35.56,0,0,1-9.31,1.13H14.42V62.48H0V.51Zm-4.41,28a10.41,10.41,0,0,0,7-2.25q2.65-2.26,2.65-7t-2.3-7.12q-2.31-2.43-7.72-2.43h-6V28.54Z"/><path class="cls-2" d="M107.35,44.78a17.89,17.89,0,0,0,.39,3.88,6.31,6.31,0,0,0,1.47,2.93,7.3,7.3,0,0,0,2.9,1.88,13.26,13.26,0,0,0,4.57.68,10,10,0,0,0,5.85-1.83,6.46,6.46,0,0,0,2.6-5.66,8.88,8.88,0,0,0-.64-3.54,7,7,0,0,0-2.11-2.68,15.49,15.49,0,0,0-3.88-2.17,62,62,0,0,0-6-2,55.45,55.45,0,0,1-8.15-3,22,22,0,0,1-5.75-3.79,13.3,13.3,0,0,1-3.39-5,18.56,18.56,0,0,1-1.08-6.6q0-9,5.8-13.45T115.9,0a40,40,0,0,1,8.69.89,19.66,19.66,0,0,1,6.88,2.9A14,14,0,0,1,136,8.9a15.91,15.91,0,0,1,1.62,7.45v1.7H124.05c0-2.9-.59-5.12-1.77-6.68S119.14,9,116.39,9a11,11,0,0,0-3.93.6A6.59,6.59,0,0,0,110,11.2a5.18,5.18,0,0,0-1.28,2.25,10.06,10.06,0,0,0-.34,2.64,7.9,7.9,0,0,0,1.38,4.73c.91,1.27,2.88,2.45,5.89,3.53l10.91,4.09a34.89,34.89,0,0,1,6.58,3.19,17.1,17.1,0,0,1,4.08,3.58,11.15,11.15,0,0,1,2.11,4.21,20.26,20.26,0,0,1,.59,5.11q0,9.61-6.43,14T115.5,62.92q-12,0-17.14-4.51T93.2,45.46V43h14.15Z"/><path class="cls-2" d="M186.18,10.9H170.6V62.48H156.22V10.9H140.64V.69h45.54Z"/><rect class="cls-1" x="191.75" y="0.58" width="15.59" height="10.52"/><path class="cls-2" d="M261.8,18.1a24.48,24.48,0,0,0-3.46-9.53,16.6,16.6,0,0,0-7.18-6.09Q246.54.34,239,.34H215.3V11.1h24.63a6.87,6.87,0,0,1,6.23,3.77l0,.05a20.66,20.66,0,0,1,1.65,6.66q.41,4,.4,9.31a104.25,104.25,0,0,1-.45,10.62A19.32,19.32,0,0,1,246,48.38a8.14,8.14,0,0,1-3.66,3.74,14,14,0,0,1-6.13,1.13h-5.9V21.78h-15v40.7h22.8a32,32,0,0,0,12-1.92,16.83,16.83,0,0,0,7.54-5.83,25,25,0,0,0,4-10,76.74,76.74,0,0,0,1.16-14.23A77.13,77.13,0,0,0,261.8,18.1Z"/><rect class="cls-1" x="192.64" y="21.71" width="15.18" height="40.76"/><path class="cls-1" d="M76.75,14.14a8.74,8.74,0,0,1,1.36,4.79c0,4.47,0,8.93,0,13.4a3.32,3.32,0,0,0,.11,1.09,1.78,1.78,0,0,0,1.84,1,1.65,1.65,0,0,0,1.58-1.75q0-6.87,0-13.74a16.39,16.39,0,0,0-.2-2.53C80.69,11.53,75.33,7.26,69.7,7c-7.78-.34-13.86,4.64-13.88,11.38,0,4.16,0,8.32,0,12.47q0,6.62,0,13.23a4,4,0,0,0,0,.85,1.71,1.71,0,0,0,1.82,1.24,1.6,1.6,0,0,0,1.65-1.4c0-.31,0-.62,0-.93v-25a8.21,8.21,0,0,1,2.34-5.95C65.71,8.74,73.73,9.4,76.75,14.14Z"/><path class="cls-1" d="M82.89,5.7A22.3,22.3,0,0,0,55.48,5a26.23,26.23,0,0,0-3.39,3.27,1.39,1.39,0,0,0,.27,2.19,2,2,0,0,0,2.46-.28c.35-.33.64-.71,1-1A17.47,17.47,0,0,1,72,4.06c8,1.34,13.4,7.19,13.43,14.26,0,5.46,0,10.91,0,16.37a3.77,3.77,0,0,0,.09,1,1.74,1.74,0,0,0,2.08,1.14A1.66,1.66,0,0,0,89,35c0-3,0-6.05,0-9.07,0-2.44,0-4.87,0-7.3A16,16,0,0,0,82.89,5.7Z"/><path class="cls-1" d="M68.72,16.46a1.88,1.88,0,0,1,2,1.8c0,.31,0,.62,0,.93q0,12.89,0,25.78a5.77,5.77,0,0,0,.09,1.1,1.54,1.54,0,0,0,1.65,1.29,1.61,1.61,0,0,0,1.78-1.27,4.27,4.27,0,0,0,.09-1c0-4.35,0-8.7,0-13.06s0-8.65,0-13a9.62,9.62,0,0,0-.15-1.6,5.41,5.41,0,0,0-5.49-4.12c-2.76,0-5.28,1.75-5.46,4.12-.23,3.1-.16,6.21-.14,9.32a1.65,1.65,0,0,0,1.74,1.54,1.7,1.7,0,0,0,1.81-1.56c.07-.87,0-1.75,0-2.63,0-1.95,0-3.9,0-5.85A1.81,1.81,0,0,1,68.72,16.46Z"/><path class="cls-1" d="M63.09,34c0,4,0,7.91,0,11.86a8.24,8.24,0,0,0,.32,2.43c1.12,3.54,3.78,5.61,8,6.12,4,.48,8.5-1.87,9.59-5.27a17.49,17.49,0,0,0,.6-4.5c.09-1.84,0-3.68,0-5.51a1.77,1.77,0,0,0-3.52,0c0,.39,0,.79,0,1.19,0,2.28.06,4.58-.16,6.85-.24,2.52-2.86,4.34-5.74,4.23s-5.35-2-5.45-4.61c-.08-2.15,0-4.3,0-6.44h0v-.6c0-2,0-4.07,0-6.1a1.71,1.71,0,0,0-1.82-1.82,1.75,1.75,0,0,0-1.79,1.86Z"/><path class="cls-1" d="M60.81,57.42a5.71,5.71,0,0,0-.72-.43c-5.4-3-8-7.34-8-12.88,0-5.17,0-10.35,0-15.52a2.9,2.9,0,0,0-.18-1.17,1.59,1.59,0,0,0-1.77-.92,1.52,1.52,0,0,0-1.53,1.2,4.26,4.26,0,0,0-.08,1v8.57c0,2.26,0,4.52,0,6.79a16.15,16.15,0,0,0,2.57,9.1,19.28,19.28,0,0,0,7.76,6.77,1.93,1.93,0,0,0,2.36-.4A1.43,1.43,0,0,0,60.81,57.42Z"/><path class="cls-1" d="M87.26,40.38a1.69,1.69,0,0,0-1.87,1.76c-.06,1.55,0,3.11-.21,4.65-.77,6-7,11.36-13.86,12.15a27,27,0,0,1-6.61-.21c-1.16-.16-1.93.35-2.09,1.22s.41,1.59,1.5,1.79a22.29,22.29,0,0,0,12.79-1.07c8-3.28,11.84-8.87,12-16.44,0-.85.06-1.7,0-2.54A1.53,1.53,0,0,0,87.26,40.38Z"/><path class="cls-1" d="M50.24,23.41a1.74,1.74,0,0,0,1.82-1.58c0-.59,0-1.18,0-1.77h0a18.11,18.11,0,0,0,0-1.95,1.65,1.65,0,0,0-1.82-1.44,1.55,1.55,0,0,0-1.67,1.46c-.06,1.24-.07,2.48,0,3.72A1.66,1.66,0,0,0,50.24,23.41Z"/></svg>